<svg width="253" height="50" viewBox="0 0 253 50" fill="none" xmlns="http://www.w3.org/2000/svg">
<path d="M46.4964 23.7004C46.4737 23.72 46.4507 23.7395 46.4274 23.7588L43.8731 25.8835C43.714 26.0159 43.6234 26.1983 43.6217 26.3894C43.6033 28.4823 42.6776 30.5701 40.8444 32.1671L27.062 43.6316C27.0505 43.6411 27.0391 43.6508 27.0277 43.6605C25.7742 44.7336 23.7493 44.747 22.5023 43.6683L22.4937 43.661L9.1722 32.2353C7.34573 30.6521 6.41505 28.5834 6.37904 26.505C6.37582 26.3197 6.28871 26.1431 6.13671 26.0126L3.50366 23.7543C2.97777 23.299 2.49265 22.8216 2.04775 22.3258C1.63797 21.8691 0.797846 22.013 0.614621 22.569C-0.923847 27.2379 0.42584 32.4759 4.66446 36.1455C4.66802 36.1486 4.67157 36.1516 4.67513 36.1547L17.9976 47.5812C21.7218 50.8005 27.7715 50.8064 31.5035 47.5981L45.2899 36.1304C45.3052 36.1175 45.3204 36.1047 45.3355 36.0917C49.5742 32.4219 50.9239 27.184 49.3854 22.5151C49.2022 21.9591 48.362 21.8152 47.9522 22.2718C47.5073 22.7677 47.0222 23.2451 46.4964 23.7004Z" fill="#C7D1D5"/>
<path d="M24.9533 15.5111C20.1408 12.5904 13.9062 12.2752 8.78604 14.5644C8.43451 14.7216 8.25658 15.0776 8.36489 15.4132C8.72097 16.5165 9.38712 17.5571 10.3641 18.4251L11.2839 19.2327C11.5204 19.4403 11.8751 19.501 12.1808 19.3844C15.6743 18.0523 19.8888 18.6518 22.7329 21.1838C23.9679 22.2832 25.9842 22.2658 27.2217 21.1687L27.2818 21.1154C30.1198 18.6 34.3141 18.0019 37.7973 19.3209C38.0995 19.4353 38.4494 19.3793 38.6865 19.1774L39.6592 18.349C40.6257 17.483 41.2844 16.4466 41.6363 15.3485C41.743 15.016 41.5606 14.6643 41.2125 14.5087C36.0606 12.2055 29.7808 12.5392 24.9565 15.5111C24.9557 15.5117 24.9543 15.5117 24.9533 15.5111Z" fill="#C7D1D5"/>
<path d="M40.8441 19.3952C44.5548 16.2041 44.548 11.0274 40.8231 7.84407C37.0913 4.65409 31.019 4.65409 27.2871 7.84407L27.2249 7.89725C25.979 8.96184 23.9588 8.96184 22.7129 7.89725C18.981 4.70727 12.9088 4.70727 9.17694 7.89725C5.44638 11.0854 5.44461 16.2726 9.17249 19.4626L22.4938 30.7422C22.4974 30.7453 22.5009 30.7482 22.5045 30.7513C23.7484 31.8144 25.7725 31.8144 27.0164 30.7513C27.0315 30.7383 27.0467 30.7257 27.062 30.7131L40.8441 19.3952ZM45.3353 3.98741C51.5549 9.30344 51.5549 17.9535 45.3353 23.2697C45.3201 23.2826 45.3049 23.2952 45.2896 23.3078L31.5035 34.6289C27.7715 37.7961 21.7219 37.7902 17.9977 34.6122L4.6755 23.3319C4.67194 23.3288 4.66839 23.3259 4.66483 23.3228C-1.55494 18.0067 -1.55494 9.35663 4.66483 4.0406C10.1748 -0.668877 18.7463 -1.20639 24.955 2.42804C31.1706 -1.26527 39.7984 -0.744858 45.3353 3.98741Z" fill="white"/>
<path d="M72.736 10.216C74.8053 10.216 76.608 10.6213 78.144 11.432C79.68 12.2427 80.8747 13.4373 81.728 15.016C82.5813 16.5947 83.008 18.504 83.008 20.744V33H77.824V27.624H67.584V33H62.464V20.744C62.464 18.504 62.8907 16.5947 63.744 15.016C64.5973 13.4373 65.792 12.2427 67.328 11.432C68.864 10.6213 70.6667 10.216 72.736 10.216ZM77.824 23.464V20.264C77.824 18.408 77.3653 17.0107 76.448 16.072C75.5307 15.112 74.2827 14.632 72.704 14.632C71.104 14.632 69.8453 15.112 68.928 16.072C68.032 17.0107 67.584 18.408 67.584 20.264V23.464H77.824ZM109.821 15.528C111.975 15.528 113.682 16.168 114.941 17.448C116.221 18.7067 116.861 20.6053 116.861 23.144V33H111.869V23.912C111.869 22.5467 111.581 21.5333 111.005 20.872C110.45 20.1893 109.65 19.848 108.605 19.848C107.431 19.848 106.503 20.232 105.821 21C105.138 21.7467 104.797 22.8667 104.797 24.36V33H99.8048V23.912C99.8048 21.2027 98.7168 19.848 96.5408 19.848C95.3888 19.848 94.4714 20.232 93.7888 21C93.1061 21.7467 92.7648 22.8667 92.7648 24.36V33H87.7728V15.784H92.5408V17.768C93.1808 17.0427 93.9594 16.488 94.8767 16.104C95.8154 15.72 96.8394 15.528 97.9488 15.528C99.1648 15.528 100.263 15.7733 101.245 16.264C102.226 16.7333 103.015 17.4267 103.613 18.344C104.317 17.448 105.202 16.7547 106.269 16.264C107.357 15.7733 108.541 15.528 109.821 15.528ZM129.715 33.256C127.901 33.256 126.269 32.8827 124.819 32.136C123.389 31.368 122.269 30.312 121.459 28.968C120.648 27.624 120.243 26.0987 120.243 24.392C120.243 22.6853 120.648 21.16 121.459 19.816C122.269 18.472 123.389 17.4267 124.819 16.68C126.269 15.912 127.901 15.528 129.715 15.528C131.528 15.528 133.149 15.912 134.579 16.68C136.008 17.4267 137.128 18.472 137.939 19.816C138.749 21.16 139.155 22.6853 139.155 24.392C139.155 26.0987 138.749 27.624 137.939 28.968C137.128 30.312 136.008 31.368 134.579 32.136C133.149 32.8827 131.528 33.256 129.715 33.256ZM129.715 29.16C130.995 29.16 132.04 28.7333 132.851 27.88C133.683 27.0053 134.099 25.8427 134.099 24.392C134.099 22.9413 133.683 21.7893 132.851 20.936C132.04 20.0613 130.995 19.624 129.715 19.624C128.435 19.624 127.379 20.0613 126.547 20.936C125.715 21.7893 125.299 22.9413 125.299 24.392C125.299 25.8427 125.715 27.0053 126.547 27.88C127.379 28.7333 128.435 29.16 129.715 29.16ZM159.836 15.784V33H155.1V30.952C154.438 31.6987 153.649 32.2747 152.732 32.68C151.814 33.064 150.822 33.256 149.756 33.256C147.494 33.256 145.702 32.6053 144.38 31.304C143.057 30.0027 142.396 28.072 142.396 25.512V15.784H147.388V24.776C147.388 27.5493 148.55 28.936 150.876 28.936C152.07 28.936 153.03 28.552 153.756 27.784C154.481 26.9947 154.844 25.832 154.844 24.296V15.784H159.836ZM169.228 18.056C169.826 17.224 170.626 16.5947 171.628 16.168C172.652 15.7413 173.826 15.528 175.148 15.528V20.136C174.594 20.0933 174.22 20.072 174.028 20.072C172.599 20.072 171.479 20.4773 170.668 21.288C169.858 22.0773 169.452 23.272 169.452 24.872V33H164.46V15.784H169.228V18.056ZM178.375 10.6H183.559V28.776H194.791V33H178.375V10.6ZM197.335 15.784H202.327V33H197.335V15.784ZM199.831 13.384C198.914 13.384 198.167 13.1173 197.591 12.584C197.015 12.0507 196.727 11.3893 196.727 10.6C196.727 9.81067 197.015 9.14933 197.591 8.616C198.167 8.08267 198.914 7.816 199.831 7.816C200.749 7.816 201.495 8.072 202.071 8.584C202.647 9.096 202.935 9.736 202.935 10.504C202.935 11.336 202.647 12.0293 202.071 12.584C201.495 13.1173 200.749 13.384 199.831 13.384ZM217.424 15.528C219.558 15.528 221.275 16.168 222.576 17.448C223.899 18.728 224.56 20.6267 224.56 23.144V33H219.568V23.912C219.568 22.5467 219.27 21.5333 218.672 20.872C218.075 20.1893 217.211 19.848 216.08 19.848C214.822 19.848 213.819 20.2427 213.072 21.032C212.326 21.8 211.952 22.952 211.952 24.488V33H206.96V15.784H211.728V17.8C212.39 17.0747 213.211 16.52 214.192 16.136C215.174 15.7307 216.251 15.528 217.424 15.528ZM236.477 26.248L234.077 28.616V33H229.085V9.256H234.077V22.696L241.373 15.784H247.325L240.157 23.08L247.965 33H241.917L236.477 26.248Z" fill="white"/>
</svg>
