<svg width="50" height="50" viewBox="0 0 50 50" fill="none" xmlns="http://www.w3.org/2000/svg">
<path d="M46.4964 23.7004C46.4737 23.72 46.4507 23.7395 46.4274 23.7588L43.8731 25.8835C43.714 26.0159 43.6234 26.1983 43.6217 26.3894C43.6033 28.4823 42.6776 30.5701 40.8444 32.1671L27.062 43.6316C27.0505 43.6411 27.0391 43.6508 27.0277 43.6605C25.7742 44.7336 23.7493 44.747 22.5023 43.6683L22.4937 43.661L9.1722 32.2353C7.34573 30.6521 6.41505 28.5834 6.37904 26.505C6.37582 26.3197 6.28871 26.1431 6.13671 26.0126L3.50366 23.7543C2.97777 23.299 2.49265 22.8216 2.04775 22.3258C1.63797 21.8691 0.797846 22.013 0.614621 22.569C-0.923847 27.2379 0.42584 32.4759 4.66446 36.1455C4.66802 36.1486 4.67157 36.1516 4.67513 36.1547L17.9976 47.5812C21.7218 50.8005 27.7715 50.8064 31.5035 47.5981L45.2899 36.1304C45.3052 36.1175 45.3204 36.1047 45.3355 36.0917C49.5742 32.4219 50.9239 27.184 49.3854 22.5151C49.2022 21.9591 48.362 21.8152 47.9522 22.2718C47.5073 22.7677 47.0222 23.2451 46.4964 23.7004Z" fill="#C7D1D5"/>
<path d="M24.9533 15.5111C20.1408 12.5904 13.9062 12.2752 8.78604 14.5644C8.43451 14.7216 8.25658 15.0776 8.36489 15.4132C8.72097 16.5165 9.38712 17.5571 10.3641 18.4251L11.2839 19.2327C11.5204 19.4403 11.8751 19.501 12.1808 19.3844C15.6743 18.0523 19.8888 18.6518 22.7329 21.1838C23.9679 22.2832 25.9842 22.2658 27.2217 21.1687L27.2818 21.1154C30.1198 18.6 34.3141 18.0019 37.7973 19.3209C38.0995 19.4353 38.4494 19.3793 38.6865 19.1774L39.6592 18.349C40.6257 17.483 41.2844 16.4466 41.6363 15.3485C41.743 15.016 41.5606 14.6643 41.2125 14.5087C36.0606 12.2055 29.7808 12.5392 24.9565 15.5111C24.9557 15.5117 24.9543 15.5117 24.9533 15.5111Z" fill="#C7D1D5"/>
<path d="M40.8441 19.3952C44.5548 16.2041 44.548 11.0274 40.8231 7.84407C37.0913 4.65409 31.019 4.65409 27.2871 7.84407L27.2249 7.89725C25.979 8.96184 23.9588 8.96184 22.7129 7.89725C18.981 4.70727 12.9088 4.70727 9.17694 7.89725C5.44638 11.0854 5.44461 16.2726 9.17249 19.4626L22.4938 30.7422C22.4974 30.7453 22.5009 30.7482 22.5045 30.7513C23.7484 31.8144 25.7725 31.8144 27.0164 30.7513C27.0315 30.7383 27.0467 30.7257 27.062 30.7131L40.8441 19.3952ZM45.3353 3.98741C51.5549 9.30344 51.5549 17.9535 45.3353 23.2697C45.3201 23.2826 45.3049 23.2952 45.2896 23.3078L31.5035 34.6289C27.7715 37.7961 21.7219 37.7902 17.9977 34.6122L4.6755 23.3319C4.67194 23.3288 4.66839 23.3259 4.66483 23.3228C-1.55494 18.0067 -1.55494 9.35663 4.66483 4.0406C10.1748 -0.668877 18.7463 -1.20639 24.955 2.42804C31.1706 -1.26527 39.7984 -0.744858 45.3353 3.98741Z" fill="white"/>
</svg>
