<svg width="74" height="74" viewBox="0 0 74 74" fill="none" xmlns="http://www.w3.org/2000/svg">
<path d="M37.0353 73.0688C57.1578 73.0688 73.4704 56.7562 73.4704 36.6336C73.4704 16.5111 57.1578 0.198486 37.0353 0.198486C16.9127 0.198486 0.600098 16.5111 0.600098 36.6336C0.600098 56.7562 16.9127 73.0688 37.0353 73.0688Z" fill="#3C5A99"/>
<path d="M39.8676 54.8513V38.2562H45.461L46.3007 31.7591H39.8676V27.6245C39.8676 25.7458 40.3871 24.472 43.077 24.472H46.4857V18.6794C45.8951 18.6011 43.8598 18.4232 41.4901 18.4232C36.5443 18.4232 33.157 21.4405 33.157 26.9841V31.7662H27.585V38.2633H33.157V54.8513H39.8676Z" fill="white"/>
</svg>
