<svg width="22" height="14" viewBox="0 0 22 14" fill="none" xmlns="http://www.w3.org/2000/svg">
<path d="M21.352 3.82657L12.1992 1.01452C11.7005 0.861288 11.1623 0.861288 10.6639 1.01452L1.51083 3.82657C0.738416 4.0638 0.738416 5.08526 1.51083 5.32249L3.1065 5.81271C2.75639 6.24551 2.54114 6.77347 2.51981 7.35163C2.20383 7.53275 1.98136 7.85957 1.98136 8.24971C1.98136 8.60343 2.16773 8.90104 2.43614 9.09135L1.59844 12.8609C1.52559 13.1887 1.77497 13.4997 2.11064 13.4997H3.95176C4.28776 13.4997 4.53713 13.1887 4.46429 12.8609L3.62658 9.09135C3.89499 8.90104 4.08137 8.60343 4.08137 8.24971C4.08137 7.87007 3.86907 7.55244 3.56752 7.36803C3.59246 6.87519 3.84446 6.43944 4.24641 6.16315L10.6636 8.13486C10.9609 8.22608 11.5311 8.33994 12.1989 8.13486L21.352 5.32282C22.1247 5.08526 22.1247 4.06413 21.352 3.82657ZM12.5073 9.1386C11.5712 9.42604 10.7735 9.26723 10.3551 9.1386L5.59665 7.6768L5.13137 11.3997C5.13137 12.5596 7.95194 13.4997 11.4314 13.4997C14.9108 13.4997 17.7314 12.5596 17.7314 11.3997L17.2661 7.67647L12.5073 9.1386Z" fill="black"/>
</svg>
