<svg width="19" height="16" viewBox="0 0 19 16" fill="none" xmlns="http://www.w3.org/2000/svg">
<path d="M10.14 2.4569C10.0842 2.40645 10.0099 2.3783 9.93264 2.3783C9.85538 2.3783 9.7811 2.40645 9.72527 2.4569L2.82153 8.68665C2.79221 8.71314 2.76889 8.74497 2.75297 8.78023C2.73705 8.81548 2.72886 8.85342 2.72891 8.89174L2.72778 14.7386C2.72778 15.0392 2.85421 15.3275 3.07925 15.5401C3.3043 15.7527 3.60952 15.8721 3.92778 15.8721H7.53152C7.69065 15.8721 7.84326 15.8124 7.95578 15.7061C8.06831 15.5998 8.13152 15.4556 8.13152 15.3053V10.4879C8.13152 10.4127 8.16313 10.3406 8.21939 10.2875C8.27565 10.2344 8.35195 10.2045 8.43152 10.2045H11.4315C11.5111 10.2045 11.5874 10.2344 11.6436 10.2875C11.6999 10.3406 11.7315 10.4127 11.7315 10.4879V15.3053C11.7315 15.4556 11.7947 15.5998 11.9072 15.7061C12.0198 15.8124 12.1724 15.8721 12.3315 15.8721H15.9338C16.252 15.8721 16.5572 15.7527 16.7823 15.5401C17.0073 15.3275 17.1337 15.0392 17.1337 14.7386V8.89174C17.1338 8.85342 17.1256 8.81548 17.1097 8.78023C17.0938 8.74497 17.0704 8.71314 17.0411 8.68665L10.14 2.4569Z" fill="black"/>
<path d="M18.7406 7.51774L15.9356 4.98291V1.13639C15.9356 0.986073 15.8724 0.841916 15.7599 0.735628C15.6474 0.62934 15.4948 0.569628 15.3356 0.569628H13.5356C13.3765 0.569628 13.2239 0.62934 13.1114 0.735628C12.9988 0.841916 12.9356 0.986073 12.9356 1.13639V2.26991L10.7636 0.30821C10.5604 0.114095 10.2581 0.00286865 9.93151 0.00286865C9.60601 0.00286865 9.30451 0.114095 9.10126 0.308564L1.12503 7.51703C0.891783 7.72957 0.862533 8.07919 1.07478 8.30943C1.12808 8.36755 1.19334 8.41481 1.26659 8.44835C1.33985 8.48189 1.41955 8.50099 1.50087 8.50451C1.58219 8.50802 1.66341 8.49586 1.7396 8.46878C1.81578 8.4417 1.88534 8.40026 1.94403 8.34698L9.72526 1.32342C9.78109 1.27297 9.85537 1.24481 9.93264 1.24481C10.0099 1.24481 10.0842 1.27297 10.14 1.32342L17.922 8.34698C18.0366 8.45082 18.1902 8.50749 18.349 8.50457C18.5078 8.50165 18.6588 8.43937 18.7691 8.33139C18.9994 8.10611 18.9802 7.73417 18.7406 7.51774Z" fill="black"/>
</svg>
