<svg width="17" height="20" viewBox="0 0 17 20" fill="none" xmlns="http://www.w3.org/2000/svg">
<path d="M8.10935 19.2641C2.05527 11.2674 0.931519 10.4467 0.931519 7.50781C0.931519 3.48216 4.51323 0.21875 8.93152 0.21875C13.3498 0.21875 16.9315 3.48216 16.9315 7.50781C16.9315 10.4467 15.8078 11.2674 9.75368 19.2641C9.35639 19.787 8.5066 19.787 8.10935 19.2641ZM8.93152 10.5449C10.7725 10.5449 12.2649 9.18517 12.2649 7.50781C12.2649 5.83045 10.7725 4.4707 8.93152 4.4707C7.09056 4.4707 5.59819 5.83045 5.59819 7.50781C5.59819 9.18517 7.09056 10.5449 8.93152 10.5449Z" fill="black"/>
</svg>
