<svg width="25" height="24" viewBox="0 0 25 24" fill="none" xmlns="http://www.w3.org/2000/svg">
<path d="M5.88963 18.7C6.08591 18.9 6.28219 19 6.57661 19C6.87103 19 7.06731 18.9 7.26359 18.7L12.465 13.4L17.6664 18.7C17.8627 18.9 18.1571 19 18.3534 19C18.5496 19 18.8441 18.9 19.0403 18.7C19.4329 18.3 19.4329 17.7 19.0403 17.3L13.8389 12L19.0403 6.7C19.4329 6.3 19.4329 5.7 19.0403 5.3C18.6478 4.9 18.0589 4.9 17.6664 5.3L12.465 10.6L7.26359 5.3C6.87103 4.9 6.28219 4.9 5.88963 5.3C5.49708 5.7 5.49708 6.3 5.88963 6.7L11.091 12L5.88963 17.3C5.49708 17.7 5.49708 18.3 5.88963 18.7Z" fill="black"/>
</svg>
