<svg width="18" height="16" viewBox="0 0 18 16" fill="none" xmlns="http://www.w3.org/2000/svg">
<path fill-rule="evenodd" clip-rule="evenodd" d="M2 3.99999C2.00027 3.42076 2.12635 2.84849 2.3695 2.32276C2.61266 1.79702 2.96709 1.33037 3.4083 0.955072C3.84951 0.579769 4.36697 0.304767 4.92489 0.149082C5.48282 -0.00660421 6.0679 -0.0392593 6.63968 0.0533732C7.21147 0.146006 7.75631 0.361716 8.23655 0.68559C8.71678 1.00946 9.12094 1.43377 9.42109 1.92918C9.72124 2.42459 9.91021 2.97927 9.97494 3.55488C10.0397 4.13049 9.97862 4.7133 9.796 5.26299L7.263 7.797C6.66165 7.99711 6.02135 8.05147 5.39487 7.95559C4.76839 7.85971 4.17366 7.61634 3.65968 7.24553C3.1457 6.87472 2.7272 6.38709 2.43864 5.82281C2.15008 5.25854 1.99974 4.63377 2 3.99999ZM6.06 9H4C2.93913 9 1.92172 9.42142 1.17157 10.1716C0.421427 10.9217 0 11.9391 0 13V14C0 14.5304 0.210714 15.0391 0.585786 15.4142C0.960859 15.7893 1.46957 16 2 16H4.172C3.99162 15.4906 3.95224 14.9419 4.058 14.412L4.732 11.04C4.84803 10.4593 5.13335 9.92586 5.552 9.507L6.06 9ZM15.092 3.99999C14.7101 4.00001 14.332 4.07526 13.9792 4.22145C13.6265 4.36764 13.3059 4.5819 13.036 4.852L6.967 10.92C6.82774 11.0594 6.73277 11.2368 6.694 11.43L6.019 14.803C5.98664 14.9645 5.99466 15.1315 6.04236 15.2891C6.09005 15.4467 6.17594 15.5901 6.2924 15.7066C6.40885 15.8231 6.55227 15.9089 6.70991 15.9566C6.86754 16.0043 7.03452 16.0124 7.196 15.98L10.568 15.305C10.7615 15.2664 10.9393 15.1714 11.079 15.032L17.149 8.962C17.4865 8.62357 17.7354 8.20723 17.8738 7.74978C18.0121 7.29232 18.0357 6.80782 17.9424 6.33909C17.8491 5.87036 17.6418 5.43183 17.3387 5.06224C17.0357 4.69265 16.6463 4.40338 16.205 4.22C15.852 4.07427 15.4738 3.99952 15.092 3.99999Z" fill="black"/>
</svg>
